<?xml version="1.0" encoding="UTF-8"?>
<!DOCTYPE svg PUBLIC "-//W3C//DTD SVG 1.1//EN" "http://www.w3.org/Graphics/SVG/1.1/DTD/svg11.dtd">
<!-- Creator: CorelDRAW 2019 (64 Bit) -->
<svg xmlns="http://www.w3.org/2000/svg" xml:space="preserve" width="5.0798mm" height="5.0798mm" version="1.1" style="shape-rendering:geometricPrecision; text-rendering:geometricPrecision; image-rendering:optimizeQuality; fill-rule:evenodd; clip-rule:evenodd"
viewBox="0 0 507.98 507.98"
 xmlns:xlink="http://www.w3.org/1999/xlink">
 <defs>
  <style type="text/css">
   <![CDATA[
    .fil1 {fill:#373435}
    .fil0 {fill:#373435;fill-rule:nonzero}
    .fil2 {fill:#373435;fill-rule:nonzero;fill-opacity:0.501961}
   ]]>
  </style>
 </defs>
 <g id="Camada_x0020_1">
  <metadata id="CorelCorpID_0Corel-Layer"/>
  <g id="_2417879594224">
   <path class="fil0" d="M132.02 248.03c0,63.43 51.6,115.04 115.03,115.04 63.43,0 115.03,-51.61 115.03,-115.04 0,-63.42 -51.6,-115.03 -115.03,-115.03 -63.43,0 -115.03,51.61 -115.03,115.03zm231.41 0c0,64.18 -52.21,116.39 -116.38,116.39 -64.18,0 -116.38,-52.21 -116.38,-116.39 0,-64.17 52.2,-116.38 116.38,-116.38 64.17,0 116.38,52.21 116.38,116.38z"/>
   <path class="fil1" d="M247.05 144.53c57.16,0 103.5,46.34 103.5,103.5 0,57.17 -46.34,103.51 -103.5,103.51 -57.17,0 -103.51,-46.34 -103.51,-103.51 0,-57.16 46.34,-103.5 103.51,-103.5l0 0z"/>
   <path class="fil0" d="M148.04 58.86c-70.6,37.03 -114.46,109.52 -114.46,189.17 0,20.6 2.93,40.96 8.7,60.52l-2.59 0.77c-5.84,-19.81 -8.81,-40.43 -8.81,-61.29 0,-80.66 44.41,-154.06 115.91,-191.55l1.25 2.38z"/>
   <path class="fil0" d="M451.63 164.44l-6.25 2.56c-28.12,-68.75 -91.03,-118.74 -164.18,-130.45l1.06 -6.66c75.47,12.08 140.36,63.64 169.37,134.55z"/>
   <path class="fil0" d="M467.99 248.03c0,56.98 -21.63,111.07 -60.9,152.32l-4.88 -4.65c40.53,-42.57 61.7,-99.22 58.77,-158.45l6.73 -0.34c0.19,3.71 0.28,7.45 0.28,11.12z"/>
   <polygon class="fil0" points="456.67,153.1 430.85,164.73 430.6,164.2 456.35,152.4 "/>
   <path class="fil0" d="M459.52 159.65l-26.15 10.87 -0.49 -1.14 26.08 -11.06 0.56 1.33zm2.66 6.67l-26.49 10.05 -0.44 -1.17 26.41 -10.23 0.52 1.35zm2.44 6.75l-26.78 9.22 -0.42 -1.19 26.73 -9.39 0.47 1.36zm2.24 6.86l-27.08 8.3 -0.36 -1.15 27 -8.57c0.15,0.47 0.3,0.94 0.44,1.42zm2.01 6.88l-27.32 7.47 -0.32 -1.16 27.25 -7.74c0.13,0.47 0.26,0.95 0.39,1.43zm1.79 6.92l-27.52 6.67 -0.31 -1.23 27.5 -6.82 0.33 1.38zm1.59 7.03l-27.74 5.74 -0.25 -1.18 27.68 -6c0.11,0.48 0.21,0.96 0.31,1.44zm1.35 7l-27.88 4.98 -0.23 -1.28 27.86 -5.07 0.25 1.37zm1.14 7.14l-28.04 3.99 -0.18 -1.2 28.01 -4.25 0.21 1.46zm0.91 7.05l-28.14 3.25 -0.15 -1.3 28.13 -3.32 0.16 1.37zm0.7 7.21l-28.24 2.24 -0.1 -1.21 28.22 -2.5 0.12 1.47zm0.25 34.38l-0.1 1.38 -28.25 -1.99 0.09 -1.3 28.26 1.91zm0.22 -27.29l-28.29 1.5 -0.07 -1.3 28.28 -1.59 0.08 1.39zm0.15 20.1l-0.06 1.43 -28.3 -1.16 0.05 -1.27 28.31 1zm0.1 -12.87l-28.32 0.5 -0.03 -1.22 28.31 -0.75 0.04 1.47zm0.04 5.72l-0.01 1.39 -28.32 -0.25 0.01 -1.31 28.32 0.17z"/>
   <polygon class="fil0" points="476,270.77 475.94,271.44 447.76,268.58 447.82,267.92 "/>
   <polygon class="fil0" points="440.15,373.14 439.78,373.71 416.04,358.27 416.41,357.7 "/>
   <path class="fil0" d="M181.04 438.73l-9.27 26.77 -1.35 -0.48 9.44 -26.7 1.18 0.41zm5.94 1.95l-8.43 27.05 -1.35 -0.43 8.58 -26.99 1.2 0.37zm5.99 1.77l-7.56 27.3 -1.39 -0.4 7.76 -27.24 1.19 0.34zm6.06 1.58l-6.72 27.51 -1.39 -0.34 6.89 -27.47 1.22 0.3zm6.09 1.39l-5.84 27.71 -1.42 -0.3 6.06 -27.67 1.2 0.26zm6.16 1.2l-5.01 27.87 -1.38 -0.25 5.13 -27.85 1.26 0.23zm6.17 1l-4.13 28.02 -1.39 -0.21 4.26 -28 1.26 0.19zm6.2 0.81l-3.25 28.14 -1.42 -0.17 3.42 -28.11 1.25 0.14zm6.23 0.63l-2.38 28.22 -1.42 -0.13 2.55 -28.2 1.25 0.11zm6.24 0.42l-1.5 28.29 -1.43 -0.08 1.67 -28.28 1.26 0.07zm6.25 0.24l-0.62 28.32 -1.45 -0.04 0.84 -28.31 1.23 0.03zm6.49 28.37l-1.4 0.01 -0.09 -28.32 1.28 -0.01 0.21 28.32zm7.12 -0.16l-1.44 0.05 -0.88 -28.31 1.23 -0.04 1.09 28.3zm7.12 -0.38l-1.44 0.09 -1.75 -28.27 1.23 -0.08 1.96 28.26zm7.09 -0.6l-1.4 0.13 -2.67 -28.19 1.27 -0.13 2.8 28.19zm7.09 -0.82l-1.39 0.18 -3.55 -28.1 1.26 -0.17 3.68 28.09zm7.06 -1.04l-1.41 0.23 -4.38 -27.99 1.23 -0.2 4.56 27.96zm7.03 -1.26l-1.42 0.27 -5.23 -27.83 1.21 -0.23 5.44 27.79zm6.96 -1.47l-1.4 0.31 -6.1 -27.66 1.2 -0.26 6.3 27.61zm6.91 -1.69l-1.36 0.35 -7.01 -27.44 1.22 -0.31 7.15 27.4zm6.86 -1.9l-1.38 0.4 -7.81 -27.22 1.18 -0.35 8.01 27.17zm6.79 -2.12l-1.36 0.45 -8.65 -26.97 1.17 -0.38 8.84 26.9zm6.74 -2.32l-1.36 0.49 -9.48 -26.69 1.15 -0.42 9.69 26.62zm6.63 -2.53l-1.31 0.52 -10.33 -26.38 1.17 -0.46 10.47 26.32zm6.59 -2.75l-1.3 0.56 -11.17 -26.03 1.16 -0.5 11.31 25.97zm6.47 -2.94l-1.29 0.61 -11.93 -25.7 1.13 -0.52 12.09 25.61zm6.4 -3.15l-1.25 0.64 -12.77 -25.29 1.12 -0.57 12.9 25.22zm6.3 -3.35l-1.25 0.69 -13.53 -24.89 1.09 -0.59 13.69 24.79zm6.18 -3.53l-1.22 0.71 -14.31 -24.44 1.09 -0.64 14.44 24.37zm6.07 -3.73l-1.2 0.76 -15.05 -24 1.07 -0.67 15.18 23.91zm5.95 -3.91l-1.19 0.8 -15.74 -23.54 1.03 -0.7 15.9 23.44zm5.84 -4.11l-1.16 0.84 -16.49 -23.02 1.01 -0.73 16.64 22.91zm5.69 -4.26l-1.12 0.86 -17.19 -22.51 1 -0.77 17.31 22.42zm5.59 -4.46l-1.12 0.91 -17.87 -21.97 0.95 -0.78 18.04 21.84zm5.41 -4.61l-1.06 0.93 -18.56 -21.4 0.95 -0.83 18.67 21.3zm5.28 -4.78l-1.03 0.96 -19.2 -20.83 0.93 -0.85 19.3 20.72zm5.16 -4.97l-1.02 1.01 -19.84 -20.21 0.88 -0.87 19.98 20.07zm4.97 -5.09l-0.97 1.02 -20.48 -19.57 0.88 -0.92 20.57 19.47zm4.83 -5.26l-0.96 1.07 -21.04 -18.96 0.83 -0.93 21.17 18.82zm4.66 -5.4l-0.93 1.1 -21.61 -18.31 0.79 -0.94 21.75 18.15zm4.48 -5.54l-0.88 1.12 -22.18 -17.62 0.78 -0.98 22.28 17.48zm4.31 -5.68l-0.83 1.14 -22.73 -16.91 0.76 -1.02 22.8 16.79zm4.15 -5.82l-0.83 1.21 -23.19 -16.27 0.69 -1 23.33 16.06z"/>
   <polygon class="fil0" points="174.98,436.52 164.86,462.98 164.18,462.72 174.4,436.3 "/>
   <path class="fil2" d="M380.63 181.32l-12.06 6.04c-23.19,-46.34 -69.75,-75.12 -121.52,-75.12 -22.5,0 -44.78,5.61 -64.44,16.23l-6.4 -11.87c21.61,-11.68 46.11,-17.85 70.84,-17.85 56.91,0 108.1,31.64 133.58,82.57z"/>
   <path class="fil0" d="M402.48 280.32c-7.28,35.23 -26.66,67.29 -54.58,90.28 -28.31,23.32 -64.12,36.16 -100.85,36.16 -8.76,0 -17.56,-0.72 -26.14,-2.15l5.3 -31.93c6.83,1.13 13.85,1.71 20.84,1.71 59.64,0 111.68,-42.32 123.73,-100.62l31.7 6.55z"/>
   <path class="fil0" d="M310.73 84.13l5.43 -13.81c-1.32,-0.51 -2.65,-1.01 -3.99,-1.5l-5.02 13.96c1.2,0.44 2.39,0.89 3.58,1.35zm7.18 -14.57l-6.42 16.32 -0.62 -0.25c-1.6,-0.63 -3.2,-1.23 -4.81,-1.81l-0.64 -0.23 5.94 -16.5 0.63 0.23c1.78,0.64 3.54,1.3 5.29,1.99l0.63 0.25z"/>
   <path class="fil0" d="M436.27 276.3c0.56,-3.75 1.01,-7.57 1.34,-11.36l-16.12 -1.41c-0.3,3.47 -0.71,6.97 -1.22,10.4l16 2.37z"/>
   <path class="fil0" d="M432.5 292.33c0.77,-3.25 1.47,-6.55 2.07,-9.83l-14.61 -2.62c-0.54,2.99 -1.18,6 -1.88,8.97l14.42 3.48zm3.63 -10.92l-0.11 0.66c-0.68,3.75 -1.47,7.53 -2.36,11.24l-0.16 0.65 -17.04 -4.11 0.15 -0.66c0.82,-3.37 1.54,-6.81 2.15,-10.21l0.12 -0.66 17.25 3.09z"/>
   <path class="fil0" d="M437.39 258.52c0.18,-3.34 0.28,-6.7 0.29,-10.03l-14.84 0c-0.01,3.05 -0.09,6.12 -0.26,9.17l14.81 0.86zm1.64 -11.38l0 0.89c0,3.73 -0.11,7.51 -0.33,11.24l-0.04 0.67 -17.5 -1.01 0.04 -0.68c0.19,-3.38 0.29,-6.82 0.29,-10.22l0 -0.89 17.54 0z"/>
   <path class="fil0" d="M427.79 308.78c1.07,-3.17 2.06,-6.4 2.95,-9.61l-14.31 -3.92c-0.82,2.93 -1.72,5.87 -2.68,8.76l14.04 4.77zm4.61 -10.56l-0.18 0.65c-1.01,3.67 -2.14,7.36 -3.37,10.98l-0.21 0.64 -16.6 -5.64 0.21 -0.64c1.12,-3.27 2.14,-6.63 3.06,-9.97l0.18 -0.65 16.91 4.63z"/>
   <path class="fil0" d="M422.08 242.59l16.18 -0.5c-0.11,-3.8 -0.35,-7.63 -0.69,-11.41l-16.11 1.46c0.31,3.45 0.52,6.96 0.62,10.45z"/>
   <path class="fil0" d="M421.5 226.18l14.73 -1.77c-0.42,-3.33 -0.92,-6.66 -1.5,-9.93l-14.6 2.64c0.53,2.99 0.99,6.03 1.37,9.06zm16.23 -0.59l-17.41 2.09 -0.08 -0.67c-0.42,-3.45 -0.94,-6.92 -1.55,-10.31l-0.12 -0.66 17.25 -3.13 0.12 0.66c0.67,3.73 1.25,7.55 1.71,11.35l0.08 0.67z"/>
   <path class="fil0" d="M382.5 359.03l12.52 10.27c2.41,-2.95 4.76,-5.99 6.98,-9.05l-13.1 -9.51c-2.04,2.81 -4.19,5.6 -6.4,8.29z"/>
   <path class="fil0" d="M383.55 381.1c2.33,-2.38 4.62,-4.86 6.82,-7.37l-11.19 -9.75c-2.01,2.29 -4.1,4.55 -6.22,6.73l10.59 10.39zm8.72 -7.5l-0.44 0.51c-2.51,2.87 -5.13,5.71 -7.79,8.42l-0.47 0.48 -12.51 -12.28 0.47 -0.48c2.42,-2.47 4.8,-5.05 7.08,-7.66l0.44 -0.51 13.22 11.52z"/>
   <path class="fil0" d="M405.11 354.63c1.87,-2.76 3.68,-5.61 5.4,-8.47l-12.74 -7.6c-1.57,2.61 -3.22,5.2 -4.92,7.72l12.26 8.35zm7.26 -8.93l-0.35 0.58c-1.95,3.27 -4.03,6.52 -6.17,9.67l-0.38 0.56 -14.5 -9.87 0.38 -0.56c1.95,-2.86 3.84,-5.81 5.61,-8.79l0.35 -0.58 15.06 8.99z"/>
   <path class="fil0" d="M414.04 340.05c1.61,-2.91 3.16,-5.91 4.62,-8.92l-13.37 -6.43c-1.33,2.74 -2.75,5.47 -4.22,8.14l12.97 7.21zm6.42 -9.55l-0.29 0.61c-1.66,3.44 -3.43,6.87 -5.28,10.19l-0.33 0.59 -15.32 -8.53 0.33 -0.59c1.68,-3.03 3.3,-6.14 4.8,-9.26l0.29 -0.61 15.8 7.6z"/>
   <path class="fil0" d="M421.62 324.73c1.35,-3.08 2.63,-6.2 3.8,-9.31l-13.89 -5.19c-1.07,2.83 -2.24,5.67 -3.47,8.48l13.56 6.02zm5.54 -10.09l-0.24 0.63c-1.32,3.54 -2.78,7.11 -4.34,10.62l-0.27 0.62 -16.03 -7.11 0.27 -0.62c1.42,-3.19 2.75,-6.44 3.95,-9.66l0.24 -0.63 16.42 6.15z"/>
   <path class="fil0" d="M325.14 90.5l6.66 -13.27c-3.01,-1.49 -6.07,-2.91 -9.12,-4.23l-5.84 13.64c2.78,1.2 5.57,2.5 8.3,3.86zm8.47 -13.87l-7.86 15.67 -0.61 -0.3c-3.1,-1.55 -6.28,-3.03 -9.46,-4.39l-0.61 -0.27 6.9 -16.11 0.62 0.26c3.48,1.49 6.99,3.12 10.41,4.84l0.61 0.3z"/>
   <path class="fil0" d="M364.19 116.96l9.94 -11.02c-2.49,-2.23 -5.06,-4.41 -7.66,-6.5l-9.26 11.59c2.37,1.91 4.71,3.9 6.98,5.93zm11.84 -11.12l-11.74 13.02 -0.5 -0.45c-2.57,-2.32 -5.24,-4.59 -7.95,-6.75l-0.53 -0.42 10.95 -13.7 0.52 0.42c2.98,2.38 5.93,4.88 8.75,7.43l0.5 0.45z"/>
   <path class="fil0" d="M375.46 127.98l10.88 -10.09c-2.27,-2.43 -4.64,-4.84 -7.05,-7.16l-10.26 10.72c2.19,2.11 4.35,4.3 6.43,6.53zm12.79 -10.02l-12.86 11.93 -0.45 -0.5c-2.36,-2.54 -4.83,-5.04 -7.32,-7.43l-0.49 -0.47 12.12 -12.67 0.49 0.47c2.76,2.64 5.46,5.39 8.05,8.17l0.46 0.5z"/>
   <path class="fil0" d="M339.15 99.06l8.53 -13.75c-3.23,-2 -6.56,-3.93 -9.9,-5.73l-7.69 14.24c3.06,1.65 6.11,3.41 9.06,5.24z"/>
   <path class="fil0" d="M418.86 210.65l14.51 -3.09c-0.71,-3.27 -1.51,-6.54 -2.38,-9.76l-14.3 3.95c0.8,2.94 1.52,5.92 2.17,8.9zm16.11 -2.05l-17.15 3.65 -0.14 -0.66c-0.72,-3.39 -1.55,-6.8 -2.47,-10.13l-0.18 -0.65 16.9 -4.67 0.18 0.65c1.01,3.67 1.93,7.42 2.72,11.15l0.14 0.66z"/>
   <path class="fil0" d="M385.7 139.96l11.73 -9.09c-2.05,-2.63 -4.2,-5.24 -6.38,-7.75l-11.17 9.76c1.99,2.3 3.95,4.68 5.82,7.08zm13.63 -8.85l-13.87 10.74 -0.41 -0.53c-2.12,-2.74 -4.35,-5.45 -6.63,-8.06l-0.44 -0.5 13.2 -11.54 0.44 0.5c2.5,2.86 4.96,5.84 7.29,8.86l0.42 0.53z"/>
   <path class="fil0" d="M351.99 106.98l8.91 -11.86c-2.69,-2 -5.45,-3.95 -8.21,-5.79l-8.19 12.37c2.54,1.69 5.05,3.47 7.49,5.28zm10.8 -12.13l-10.53 14.02 -0.54 -0.4c-2.77,-2.08 -5.63,-4.1 -8.53,-6.02l-0.56 -0.37 9.68 -14.62 0.56 0.37c3.16,2.09 6.32,4.32 9.38,6.62l0.54 0.4z"/>
   <path class="fil0" d="M394.84 152.8l12.49 -8.01c-1.81,-2.8 -3.71,-5.58 -5.67,-8.29l-11.99 8.74c1.77,2.46 3.51,5 5.17,7.56zm14.35 -7.6l-14.76 9.46 -0.36 -0.57c-1.88,-2.92 -3.86,-5.82 -5.89,-8.61l-0.39 -0.54 14.17 -10.32 0.4 0.55c2.24,3.07 4.41,6.26 6.47,9.46l0.36 0.57z"/>
   <path class="fil0" d="M409.1 181.52l14.97 -6.15c-1.44,-3.5 -3.01,-7.01 -4.66,-10.43l-14.58 7.03c1.51,3.13 2.95,6.35 4.27,9.55z"/>
   <path class="fil0" d="M414.84 195.44l14.17 -4.39c-1,-3.19 -2.09,-6.38 -3.25,-9.5l-13.88 5.23c1.05,2.84 2.05,5.74 2.96,8.66zm15.86 -3.5l-16.75 5.18 -0.2 -0.64c-1.02,-3.32 -2.16,-6.64 -3.37,-9.86l-0.24 -0.63 16.41 -6.17 0.24 0.63c1.34,3.55 2.58,7.2 3.71,10.85l0.2 0.64z"/>
   <path class="fil0" d="M402.49 167.3l14.36 -7.47c-1.75,-3.36 -3.63,-6.72 -5.58,-9.98l-13.88 8.32c1.78,2.98 3.5,6.05 5.1,9.13z"/>
   <path class="fil0" d="M379.43 386.13c-1.35,1.3 -2.72,2.58 -4.11,3.84l-10.86 -12.01c1.27,-1.15 2.53,-2.32 3.77,-3.51l11.2 11.68z"/>
   <polygon class="fil0" points="92.59,309.92 61.3,322.5 61.03,321.81 92.36,309.36 "/>
   <path class="fil0" d="M80.73 251.24l-33.71 0.65 -0.03 -1.47 33.72 -0.4 0.02 1.22zm0.02 -7.32l-0.03 1.24 -33.71 -0.59 0.03 -1.44 33.71 0.79zm0.2 13.41l-33.67 1.85 -0.07 -1.47 33.68 -1.59 0.06 1.21zm0.05 -19.48l-0.07 1.21 -33.67 -1.79 0.09 -1.46 33.65 2.04zm0.39 25.54l-33.57 3.09 -0.13 -1.46 33.6 -2.84 0.1 1.21zm0.09 -31.62l-0.11 1.23 -33.59 -3.03 0.14 -1.43 33.56 3.23zm0.58 37.68l-33.45 4.28 -0.17 -1.43 33.47 -4.08 0.15 1.23zm0.12 -43.74l-0.16 1.23 -33.45 -4.23 0.18 -1.43 33.43 4.43zm0.76 49.75l-33.26 5.52 -0.23 -1.44 33.3 -5.28 0.19 1.2zm0.16 -55.76l-0.21 1.23 -33.27 -5.47 0.24 -1.42 33.24 5.66zm0.95 61.75l-33.04 6.71 -0.29 -1.41 33.09 -6.52 0.24 1.22zm0.18 -67.7l-0.24 1.18 -33.06 -6.66 0.3 -1.44 33 6.92zm1.14 73.61l-32.77 7.97 -0.34 -1.44 32.83 -7.7 0.28 1.17zm0.22 -79.55l-0.29 1.2 -32.78 -7.9 0.34 -1.41 32.73 8.11zm1.32 85.44l-32.45 9.15 -0.39 -1.42 32.52 -8.9 0.32 1.17zm0.25 -91.31l-0.33 1.18 -32.47 -9.09 0.39 -1.4 32.41 9.31zm1.5 97.12l-32.09 10.35 -0.44 -1.4 32.17 -10.1 0.36 1.15zm0.29 -102.94l-0.38 1.18 -32.11 -10.29 0.45 -1.38 32.04 10.49zm1.69 108.71l-31.7 11.49 -0.49 -1.36 31.77 -11.29 0.42 1.16zm0.31 -114.45l-0.41 1.13 -31.72 -11.43 0.51 -1.4 31.62 11.7zm2.23 -5.7l-0.47 1.15 -31.26 -12.63 0.55 -1.34 31.18 12.82zm2.42 -5.58l-0.5 1.12 -30.78 -13.78 0.6 -1.32 30.68 13.98zm2.63 -5.49l-0.54 1.08 -30.25 -14.88 0.65 -1.32 30.14 15.12zm2.84 -5.42l-0.58 1.07 -29.7 -15.96 0.7 -1.29 29.58 16.18zm3.03 -5.28l-0.63 1.06 -29.08 -17.07 0.74 -1.25 28.97 17.26zm3.21 -5.17l-0.66 1.03 -28.44 -18.12 0.79 -1.23 28.31 18.32zm3.41 -5.06l-0.71 1.02 -27.75 -19.16 0.83 -1.19 27.63 19.33zm3.58 -4.92l-0.74 0.99 -27.03 -20.16 0.87 -1.16 26.9 20.33zm3.75 -4.77l-0.76 0.94 -26.28 -21.12 0.93 -1.15 26.11 21.33zm3.93 -4.64l-0.79 0.9 -25.49 -22.07 0.97 -1.11 25.31 22.28zm4.11 -4.52l-0.82 0.88 -24.7 -22.96 1.01 -1.08 24.51 23.16zm4.29 -4.38l-0.9 0.89 -23.82 -23.86 1 -1 23.72 23.97zm4.39 -4.16l-0.91 0.83 -22.93 -24.72 1.07 -0.98 22.77 24.87zm4.56 -4.03l-0.92 0.8 -22.04 -25.52 1.11 -0.96 21.85 25.68zm4.68 -3.83l-0.93 0.74 -21.09 -26.31 1.16 -0.92 20.86 26.49zm4.85 -3.69l-0.97 0.71 -20.12 -27.05 1.19 -0.88 19.9 27.22zm4.98 -3.52l-1.01 0.7 -19.12 -27.78 1.2 -0.82 18.93 27.9zm5.1 -3.32l-1.05 0.66 -18.09 -28.45 1.22 -0.77 17.92 28.56zm5.2 -3.12l-1.06 0.62 -17.04 -29.1 1.25 -0.73 16.85 29.21zm5.32 -2.94l-1.09 0.58 -15.97 -29.69 1.27 -0.68 15.79 29.79zm5.4 -2.72l-1.09 0.53 -14.88 -30.26 1.31 -0.64 14.66 30.37zm5.5 -2.53l-1.1 0.48 -13.77 -30.78 1.34 -0.59 13.53 30.89zm5.57 -2.33l-1.1 0.44 -12.62 -31.26c0.46,-0.19 0.92,-0.38 1.39,-0.56l12.33 31.38zm5.73 -2.14l-1.16 0.42 -11.44 -31.72 1.36 -0.49 11.24 31.79zm5.74 -1.91l-1.13 0.36 -10.29 -32.11 1.42 -0.45 10 32.2zm5.85 -1.71l-1.16 0.33 -9.1 -32.47 1.42 -0.39 8.84 32.53zm5.9 -1.49l-1.17 0.28 -7.91 -32.78 1.44 -0.34 7.64 32.84zm5.95 -1.27l-1.21 0.24 -6.66 -33.05 1.43 -0.28 6.44 33.09zm5.99 -1.05l-1.2 0.2 -5.47 -33.28 1.45 -0.23 5.22 33.31zm6.04 -0.83l-1.23 0.15 -4.23 -33.45 1.43 -0.18 4.03 33.48zm6.04 -0.61l-1.21 0.11 -3.03 -33.59 1.46 -0.12 2.78 33.6zm6.07 -0.39l-1.22 0.06 -1.79 -33.67 1.47 -0.07 1.54 33.68zm6.1 -0.17l-1.22 0.02 -0.59 -33.71 1.46 -0.03 0.35 33.72z"/>
   <polygon class="fil0" points="251.71,48.02 250.92,81.73 250.29,81.71 250.99,48 "/>
   <path class="fil2" d="M432.48 248.03c0,102.25 -83.19,185.43 -185.43,185.43 -33.35,0 -66.05,-8.95 -94.58,-25.9l16.54 -27.83c23.52,13.98 50.51,21.36 78.04,21.36 84.39,0 153.06,-68.66 153.06,-153.06 0,-32.04 -9.8,-62.72 -28.33,-88.72l26.36 -18.79c22.46,31.52 34.34,68.69 34.34,107.51z"/>
   <path class="fil0" d="M87.22 340.77l26.76 -15.69c-2.96,-5.11 -5.65,-10.43 -8,-15.84l-28.51 12.24c2.86,6.59 6.14,13.07 9.75,19.29zm28.61 -15.21l-29.09 17.06 -0.34 -0.59c-3.89,-6.63 -7.4,-13.58 -10.43,-20.64l-0.27 -0.62 30.98 -13.3 0.27 0.62c2.48,5.77 5.35,11.45 8.54,16.89l0.34 0.58z"/>
   <path class="fil0" d="M74.52 316.11l30.11 -11.89c-2.32,-5.87 -4.29,-11.96 -5.86,-18.07l-31.36 8.03c1.9,7.42 4.3,14.8 7.11,21.93z"/>
   <path class="fil0" d="M62.28 232.35l32.25 2.7c0.53,-6.31 1.46,-12.64 2.76,-18.81l-31.67 -6.69c-1.58,7.48 -2.7,15.15 -3.34,22.8z"/>
   <path class="fil0" d="M62.05 260.76l32.3 -2.19c-0.43,-6.29 -0.47,-12.74 -0.13,-19.04l-32.32 -1.78c-0.42,7.62 -0.37,15.41 0.15,23.01z"/>
   <path class="fil0" d="M66.65 288.1l30.27 -6.81c-1.27,-5.75 -2.21,-11.64 -2.81,-17.52l-30.88 3c0.73,7.16 1.88,14.33 3.42,21.33zm31.88 -5.79l-32.9 7.4 -0.14 -0.65c-1.69,-7.48 -2.92,-15.17 -3.66,-22.84l-0.07 -0.67 33.56 -3.26 0.07 0.67c0.61,6.28 1.61,12.57 2.99,18.69l0.15 0.66z"/>
   <path class="fil0" d="M101.08 201.85c-1.04,3.27 -1.97,6.63 -2.79,9.97l-31.45 -7.63c0.98,-4.05 2.12,-8.13 3.37,-12.1l30.87 9.76z"/>
   <path class="fil2" d="M332.99 83.68l-15.02 28.68c-22.02,-11.54 -45.88,-17.38 -70.92,-17.38 -29.1,0 -57.39,8.18 -81.83,23.68 -23.81,15.1 -42.99,36.41 -55.46,61.62l-29.02 -14.34c15.1,-30.54 38.32,-56.34 67.14,-74.62 29.64,-18.79 63.93,-28.71 99.17,-28.71 29.9,0 59.62,7.28 85.94,21.07z"/>
   <path class="fil2" d="M253.73 468.87c-2.22,0.07 -4.47,0.1 -6.68,0.1 -38.22,0 -75.89,-9.91 -108.93,-28.67 -32.04,-18.19 -59.27,-44.35 -78.76,-75.65l5.72 -3.56c39.44,63.33 107.46,101.14 181.97,101.14 2.14,0 4.32,-0.03 6.48,-0.1l0.2 6.74z"/>
  </g>
 </g>
</svg>
