<?xml version="1.0" encoding="UTF-8"?>
<!DOCTYPE svg PUBLIC "-//W3C//DTD SVG 1.1//EN" "http://www.w3.org/Graphics/SVG/1.1/DTD/svg11.dtd">
<!-- Creator: CorelDRAW 2019 (64 Bit) -->
<svg xmlns="http://www.w3.org/2000/svg" xml:space="preserve" width="33.8666mm" height="33.8666mm" version="1.1" style="shape-rendering:geometricPrecision; text-rendering:geometricPrecision; image-rendering:optimizeQuality; fill-rule:evenodd; clip-rule:evenodd"
viewBox="0 0 3386.66 3386.66"
 xmlns:xlink="http://www.w3.org/1999/xlink">
 <defs>
  <style type="text/css">
   <![CDATA[
    .fil2 {fill:#CFD1D2;fill-rule:nonzero}
    .fil0 {fill:#F0F1F1;fill-rule:nonzero}
    .fil4 {fill:#E6E6E6;fill-rule:nonzero;fill-opacity:0.501961}
    .fil3 {fill:#F0F1F1;fill-rule:nonzero;fill-opacity:0.501961}
    .fil1 {fill:url(#id0)}
   ]]>
  </style>
  <radialGradient id="id0" gradientUnits="userSpaceOnUse" gradientTransform="matrix(2.64845E-14 -0.999999 -0.999999 -2.64845E-14 3296 3296)" cx="1644.66" cy="1651.58" r="725.15" fx="1644.66" fy="1651.58">
   <stop offset="0" style="stop-opacity:1; stop-color:white"/>
   <stop offset="0.568627" style="stop-opacity:1; stop-color:white"/>
   <stop offset="0.403922" style="stop-opacity:1; stop-color:#EEEFEF"/>
   <stop offset="1" style="stop-opacity:1; stop-color:#DDDFE0"/>
  </radialGradient>
 </defs>
 <g id="Camada_x0020_1">
  <metadata id="CorelCorpID_0Corel-Layer"/>
  <g id="_2417867589008">
   <path class="fil0" d="M838.76 1651.58c0,444.36 361.53,805.9 805.89,805.9 444.37,0 805.9,-361.54 805.9,-805.9 0,-444.37 -361.53,-805.9 -805.9,-805.9 -444.36,0 -805.89,361.53 -805.89,805.9zm1621.24 0c0,449.58 -365.76,815.34 -815.35,815.34 -449.58,0 -815.34,-365.76 -815.34,-815.34 0,-449.59 365.76,-815.35 815.34,-815.35 449.59,0 815.35,365.76 815.35,815.35z"/>
   <path class="fil1" d="M1644.66 926.43c400.48,0 725.14,324.66 725.14,725.15 0,400.49 -324.66,725.14 -725.14,725.14 -400.49,0 -725.15,-324.65 -725.15,-725.14 0,-400.49 324.66,-725.15 725.15,-725.15l0 0z"/>
   <path class="fil2" d="M951.02 326.3c-494.62,259.41 -801.89,767.22 -801.89,1325.28 0,144.28 20.52,286.94 60.95,423.98l-18.12 5.36c-40.95,-138.8 -61.72,-283.25 -61.72,-429.34 0,-565.11 311.14,-1079.33 812.01,-1342.01l8.77 16.73z"/>
   <path class="fil2" d="M3077.88 1065.96l-43.72 17.89c-197.01,-481.63 -637.75,-831.82 -1150.27,-913.91l7.48 -46.66c528.67,84.69 983.31,445.9 1186.51,942.68z"/>
   <path class="fil2" d="M3192.51 1651.58c0,399.13 -151.51,778.1 -426.6,1067.07l-34.23 -32.58c283.93,-298.23 432.24,-695.1 411.71,-1110.08l47.19 -2.32c1.29,25.94 1.93,52.15 1.93,77.91z"/>
   <polygon class="fil0" points="3113.23,986.49 2932.3,1067.94 2930.61,1064.24 3111.01,981.61 "/>
   <path class="fil0" d="M3133.18 1032.38l-183.22 76.18 -3.37 -8.04 182.67 -77.49 3.92 9.35zm18.62 46.74l-185.53 70.38 -3.13 -8.16 185.03 -71.68 3.63 9.46zm17.1 47.27l-187.63 64.58 -2.89 -8.3 187.22 -65.8 3.3 9.52zm15.71 48.04l-189.7 58.19 -2.52 -8.08 189.12 -60.03c1.06,3.3 2.09,6.61 3.1,9.92zm14.11 48.21l-191.4 52.36 -2.28 -8.16 190.89 -54.21c0.93,3.33 1.88,6.67 2.79,10.01zm12.54 48.51l-192.85 46.68 -2.12 -8.6 192.6 -47.78 2.37 9.7zm11.11 49.27l-194.32 40.2 -1.76 -8.32 193.92 -41.99c0.73,3.36 1.45,6.73 2.16,10.11zm9.44 48.97l-195.33 34.94 -1.61 -8.98 195.22 -35.54 1.72 9.58zm8.03 50.06l-196.46 27.98 -1.24 -8.45 196.2 -29.73 1.5 10.2zm6.35 49.42l-197.12 22.72 -1.06 -9.06 197.05 -23.32 1.13 9.66zm4.9 50.45l-197.8 15.73 -0.72 -8.5 197.65 -17.5 0.87 10.27zm1.75 240.86l-0.68 9.71 -197.93 -13.96 0.62 -9.12 197.99 13.37zm1.53 -191.17l-198.16 10.5 -0.48 -9.11 198.12 -11.09 0.52 9.7zm1.04 140.83l-0.38 10.03 -198.27 -8.17 0.34 -8.84 198.31 6.98zm0.72 -90.18l-198.39 3.5 -0.2 -8.54 198.35 -5.26 0.24 10.3zm0.29 40.08l-0.08 9.74 -198.43 -1.74 0.08 -9.16 198.43 1.16z"/>
   <polygon class="fil0" points="3248.66,1810.88 3248.2,1815.54 3050.79,1795.56 3051.24,1790.91 "/>
   <polygon class="fil2" points="2997.5,2528.07 2994.93,2532.03 2828.57,2423.85 2831.16,2419.89 "/>
   <path class="fil2" d="M1182.21 2987.58l-64.93 187.5 -9.48 -3.31 66.17 -187.07 8.24 2.88zm41.63 13.67l-59.06 189.44 -9.48 -2.98 60.12 -189.1 8.42 2.64zm41.94 12.35l-52.93 191.25 -9.76 -2.74 54.36 -190.84 8.33 2.33zm42.47 11.08l-47.1 192.76 -9.69 -2.4 48.26 -192.46 8.53 2.1zm42.67 9.72l-40.94 194.16 -9.9 -2.13 42.39 -193.84 8.45 1.81zm43.12 8.41l-35.07 195.3 -9.69 -1.77 35.98 -195.14 8.78 1.61zm43.23 7.04l-28.92 196.3 -9.76 -1.46 29.87 -196.16 8.81 1.32zm43.44 5.68l-22.77 197.13 -9.94 -1.18 24 -196.97 8.71 1.02zm43.63 4.36l-16.64 197.73 -9.96 -0.87 17.85 -197.62 8.75 0.76zm43.74 3.01l-10.51 198.15 -9.98 -0.55 11.71 -198.1 8.78 0.5zm43.82 1.66l-4.38 198.39 -10.13 -0.26 5.86 -198.35 8.65 0.22zm45.43 198.75l-9.81 0.06 -0.58 -198.43 8.94 -0.05 1.45 198.42zm49.91 -1.13l-10.07 0.35 -6.16 -198.34 8.59 -0.3 7.64 198.29zm49.9 -2.68l-10.09 0.67 -12.3 -198.05 8.62 -0.56 13.77 197.94zm49.66 -4.19l-9.81 0.95 -18.7 -197.55 8.86 -0.86 19.65 197.46zm49.64 -5.75l-9.73 1.25 -24.9 -196.86 8.87 -1.14 25.76 196.75zm49.49 -7.28l-9.88 1.59 -30.73 -196.05 8.65 -1.38 31.96 195.84zm49.25 -8.82l-9.98 1.92 -36.59 -195.03 8.44 -1.61 38.13 194.72zm48.71 -10.3l-9.81 2.2 -42.71 -193.78 8.41 -1.88 44.11 193.46zm48.42 -11.82l-9.54 2.46 -49.08 -192.26 8.55 -2.2 50.07 192zm48.07 -13.33l-9.65 2.8 -54.74 -190.72 8.29 -2.42 56.1 190.34zm47.6 -14.82l-9.55 3.11 -60.63 -188.94 8.22 -2.67 61.96 188.5zm47.22 -16.32l-9.54 3.43 -66.43 -186.97 8.05 -2.9 67.92 186.44zm46.46 -17.71l-9.21 3.63 -72.38 -184.75 8.19 -3.24 73.4 184.36zm46.12 -19.24l-9.08 3.92 -78.23 -182.36 8.08 -3.49 79.23 181.93zm45.37 -20.61l-9.07 4.25 -83.55 -179.98 7.89 -3.7 84.73 179.43zm44.85 -22.07l-8.82 4.48 -89.45 -177.13 7.89 -4 90.38 176.65zm44.13 -23.46l-8.79 4.81 -94.79 -174.32 7.63 -4.19 95.95 173.7zm43.29 -24.76l-8.54 5.02 -100.27 -171.23 7.62 -4.49 101.19 170.7zm42.49 -26.09l-8.37 5.28 -105.43 -168.09 7.48 -4.73 106.32 167.54zm41.7 -27.41l-8.34 5.63 -110.27 -164.97 7.2 -4.86 111.41 164.2zm40.94 -28.76l-8.12 5.85 -115.55 -161.3 7.07 -5.1 116.6 160.55zm39.84 -29.87l-7.84 6.03 -120.46 -157.68 7.01 -5.4 121.29 157.05zm39.15 -31.28l-7.81 6.4 -125.24 -153.92 6.7 -5.49 126.35 153.01zm37.93 -32.27l-7.47 6.51 -130 -149.92 6.67 -5.82 130.8 149.23zm36.98 -33.48l-7.26 6.73 -134.48 -145.91 6.5 -6.02 135.24 145.2zm36.15 -34.83l-7.19 7.1 -138.99 -141.62 6.16 -6.09 140.02 140.61zm34.78 -35.63l-6.75 7.09 -143.5 -137.05 6.19 -6.5 144.06 136.46zm33.83 -36.86l-6.67 7.47 -147.44 -132.81 5.85 -6.52 148.26 131.86zm32.67 -37.87l-6.52 7.74 -151.4 -128.27 5.57 -6.61 152.35 127.14zm31.42 -38.79l-6.21 7.86 -155.36 -123.46 5.43 -6.86 156.14 122.46zm30.2 -39.76l-5.88 7.94 -159.18 -118.44 5.28 -7.15 159.78 117.65zm29.08 -40.8l-5.87 8.45 -162.44 -113.96 4.85 -6.98 163.46 112.49z"/>
   <polygon class="fil2" points="1139.72,2972.1 1068.84,3157.43 1064.08,3155.61 1135.67,2970.54 "/>
   <path class="fil3" d="M2580.5 1184.19l-84.5 42.29c-162.43,-324.6 -488.64,-526.26 -851.35,-526.26 -157.59,0 -313.69,39.31 -451.4,113.69l-44.9 -83.13c151.45,-81.81 323.08,-125.05 496.3,-125.05 398.71,0 757.31,221.66 935.85,578.46z"/>
   <path class="fil2" d="M2733.6 1877.76c-51.02,246.81 -186.83,471.45 -382.4,632.52 -198.3,163.34 -449.23,253.29 -706.54,253.29 -61.39,0 -122.99,-5.06 -183.12,-15.03l37.1 -223.72c47.9,7.94 97.02,11.97 146.02,11.97 417.85,0 782.42,-296.47 866.86,-704.94l222.08 45.91z"/>
   <path class="fil2" d="M2090.81 503.29l38.03 -96.73c-9.27,-3.6 -18.59,-7.11 -27.96,-10.51l-35.16 97.8c8.4,3.07 16.76,6.21 25.09,9.44zm50.28 -102.08l-44.95 114.33 -4.38 -1.73c-11.16,-4.38 -22.39,-8.61 -33.69,-12.67l-4.45 -1.6 41.57 -115.59 4.45 1.6c12.44,4.47 24.79,9.11 37.05,13.94l4.4 1.72z"/>
   <path class="fil2" d="M2970.34 1849.63c3.9,-26.27 7.06,-53.06 9.38,-79.61l-112.96 -9.89c-2.13,24.3 -5.01,48.82 -8.57,72.85l112.15 16.65z"/>
   <path class="fil2" d="M2943.91 1961.94c5.4,-22.78 10.27,-45.92 14.48,-68.9l-102.32 -18.32c-3.83,20.94 -8.27,42.04 -13.19,62.82l101.03 24.4zm25.45 -76.54l-0.84 4.65c-4.7,26.24 -10.26,52.72 -16.53,78.71l-1.11 4.59 -119.39 -28.83 1.1 -4.6c5.7,-23.63 10.75,-47.69 15.03,-71.52l0.82 -4.65 120.92 21.65z"/>
   <path class="fil2" d="M2978.17 1725.01c1.27,-23.34 1.94,-46.93 2,-70.24l-103.94 0c-0.06,21.35 -0.67,42.91 -1.82,64.24l103.76 6zm11.44 -79.69l0 6.26c0,26.1 -0.76,52.58 -2.26,78.69l-0.28 4.72 -122.64 -7.1 0.28 -4.71c1.38,-23.73 2.07,-47.81 2.07,-71.6l0 -6.26 122.83 0z"/>
   <path class="fil2" d="M2910.9 2077.15c7.47,-22.23 14.4,-44.84 20.66,-67.33l-100.25 -27.46c-5.72,20.56 -12.03,41.16 -18.81,61.35l98.4 33.44zm32.27 -73.95l-1.25 4.56c-7.03,25.69 -14.97,51.56 -23.58,76.9l-1.52 4.48 -116.3 -39.51 1.52 -4.47c7.8,-22.95 14.99,-46.44 21.4,-69.85l1.25 -4.55 118.48 32.44z"/>
   <path class="fil2" d="M2870.92 1613.42l113.33 -3.46c-0.81,-26.62 -2.43,-53.51 -4.81,-79.93l-112.92 10.17c2.18,24.2 3.65,48.82 4.4,73.22z"/>
   <path class="fil2" d="M2866.8 1498.48l103.2 -12.42c-2.89,-23.28 -6.41,-46.64 -10.47,-69.57l-102.28 18.54c3.71,20.92 6.92,42.22 9.55,63.45zm113.72 -4.17l-121.95 14.68 -0.57 -4.69c-2.91,-24.17 -6.58,-48.48 -10.88,-72.23l-0.84 -4.65 120.85 -21.91 0.86 4.64c4.73,26.14 8.76,52.88 11.97,79.47l0.56 4.69z"/>
   <path class="fil2" d="M2593.6 2429.23l87.68 71.89c16.91,-20.62 33.38,-41.95 48.93,-63.39l-91.78 -66.58c-14.25,19.64 -29.33,39.18 -44.83,58.08z"/>
   <path class="fil2" d="M2600.95 2583.83c16.3,-16.71 32.34,-34.05 47.78,-51.65l-78.36 -68.28c-14.1,16.04 -28.73,31.87 -43.59,47.11l74.17 72.82zm61.12 -52.55l-3.1 3.56c-17.56,20.13 -35.92,39.98 -54.59,58.99l-3.3 3.37 -87.66 -86.06 3.32 -3.37c16.95,-17.27 33.64,-35.32 49.62,-53.65l3.1 -3.56 92.61 80.72z"/>
   <path class="fil2" d="M2752.01 2398.38c13.08,-19.36 25.78,-39.28 37.86,-59.33l-89.26 -53.28c-11.02,18.31 -22.61,36.47 -34.52,54.12l85.92 58.49zm50.82 -62.6l-2.42 4.06c-13.69,22.92 -28.24,45.73 -43.25,67.77l-2.65 3.9 -101.54 -69.13 2.66 -3.9c13.62,-20.01 26.85,-40.73 39.29,-61.6l2.43 -4.06 105.48 62.96z"/>
   <path class="fil2" d="M2814.53 2296.25c11.28,-20.44 22.16,-41.43 32.39,-62.5l-93.67 -45.05c-9.3,19.16 -19.23,38.29 -29.53,56.98l90.81 50.57zm45.01 -66.92l-2.05 4.26c-11.6,24.1 -24.04,48.11 -37,71.39l-2.29 4.13 -107.33 -59.75 2.3 -4.13c11.81,-21.23 23.13,-43.06 33.62,-64.88l2.04 -4.26 110.71 53.24z"/>
   <path class="fil2" d="M2867.69 2188.87c9.46,-21.56 18.39,-43.43 26.61,-65.17l-97.35 -36.41c-7.5,19.83 -15.66,39.78 -24.29,59.44l95.03 42.14zm38.78 -70.69l-1.65 4.42c-9.29,24.8 -19.52,49.84 -30.4,74.42l-1.91 4.32 -112.31 -49.8 1.92 -4.32c9.91,-22.33 19.21,-45.11 27.64,-67.66l1.66 -4.42 115.05 43.04z"/>
   <path class="fil2" d="M2191.78 547.9l46.6 -92.91c-21.07,-10.47 -42.52,-20.43 -63.88,-29.67l-40.92 95.54c19.52,8.45 39.07,17.53 58.2,27.04zm59.28 -97.13l-55.06 109.8 -4.23 -2.12c-21.72,-10.89 -44.02,-21.25 -66.26,-30.78l-4.34 -1.85 48.37 -112.92 4.34 1.86c24.39,10.45 48.95,21.86 72.95,33.9l4.23 2.11z"/>
   <path class="fil2" d="M2465.34 733.28l69.6 -77.19c-17.41,-15.58 -35.42,-30.87 -53.66,-45.55l-64.87 81.22c16.62,13.38 33.04,27.31 48.93,41.52zm82.95 -77.89l-82.25 91.24 -3.51 -3.17c-18,-16.23 -36.75,-32.13 -55.71,-47.28l-3.69 -2.95 76.68 -95.97 3.69 2.95c20.87,16.67 41.48,34.17 61.28,52.01l3.51 3.17z"/>
   <path class="fil2" d="M2544.31 810.5l76.19 -70.72c-15.92,-17.02 -32.5,-33.85 -49.39,-50.12l-71.85 75.12c15.33,14.77 30.46,30.12 45.05,45.72zm89.55 -70.22l-90.04 83.57 -3.21 -3.46c-16.53,-17.81 -33.78,-35.33 -51.28,-52.06l-3.42 -3.27 84.92 -88.76 3.41 3.27c19.34,18.5 38.31,37.75 56.4,57.25l3.22 3.46z"/>
   <path class="fil2" d="M2289.93 607.93l59.71 -96.38c-22.61,-14.02 -45.95,-27.53 -69.34,-40.16l-53.85 99.79c21.41,11.55 42.77,23.92 63.48,36.75z"/>
   <path class="fil2" d="M2848.32 1389.66l101.68 -21.63c-4.97,-22.89 -10.56,-45.84 -16.7,-68.37l-100.18 27.68c5.58,20.55 10.68,41.47 15.2,62.32zm112.89 -14.36l-120.15 25.57 -0.99 -4.62c-5.03,-23.74 -10.86,-47.61 -17.32,-70.95l-1.25 -4.55 118.39 -32.71 1.27 4.55c7.09,25.67 13.5,51.95 19.08,78.1l0.97 4.61z"/>
   <path class="fil2" d="M2616.05 894.42l82.17 -63.64c-14.41,-18.48 -29.43,-36.72 -44.7,-54.32l-78.26 68.4c13.96,16.1 27.65,32.74 40.79,49.56zm95.44 -61.97l-97.13 75.22 -2.89 -3.73c-14.86,-19.19 -30.48,-38.17 -46.42,-56.41l-3.12 -3.57 92.5 -80.84 3.1 3.56c17.5,20.01 34.68,40.89 51.07,62.04l2.89 3.73z"/>
   <path class="fil2" d="M2379.84 663.41l62.42 -83.11c-18.82,-14.02 -38.14,-27.65 -57.51,-40.57l-57.37 86.67c17.76,11.86 35.37,24.29 52.46,37.01zm75.66 -85l-73.78 98.22 -3.78 -2.83c-19.36,-14.54 -39.45,-28.73 -59.72,-42.13l-3.93 -2.61 67.8 -102.44 3.94 2.61c22.16,14.66 44.26,30.25 65.68,46.35l3.79 2.83z"/>
   <path class="fil2" d="M2680.03 984.38l87.52 -56.08c-12.69,-19.64 -26.01,-39.15 -39.69,-58.07l-84.04 61.17c12.45,17.24 24.6,35.03 36.21,52.98zm100.58 -53.22l-103.43 66.27 -2.54 -3.98c-13.14,-20.48 -27.01,-40.77 -41.23,-60.32l-2.78 -3.82 99.31 -72.29 2.78 3.82c15.67,21.55 30.93,43.87 45.33,66.35l2.56 3.97z"/>
   <path class="fil2" d="M2779.93 1185.62l104.88 -43.08c-10.08,-24.55 -21.07,-49.16 -32.64,-73.13l-102.11 49.31c10.59,21.93 20.64,44.44 29.87,66.9z"/>
   <path class="fil2" d="M2820.16 1283.08l99.31 -30.71c-7,-22.34 -14.65,-44.68 -22.77,-66.53l-97.29 36.59c7.39,19.9 14.35,40.25 20.75,60.65zm111.13 -24.47l-117.36 36.29 -1.39 -4.51c-7.19,-23.25 -15.14,-46.48 -23.64,-69.06l-1.65 -4.42 114.97 -43.24 1.66 4.42c9.37,24.89 18.11,50.47 26.01,76.02l1.4 4.5z"/>
   <path class="fil2" d="M2733.66 1086l100.58 -52.35c-12.26,-23.57 -25.42,-47.09 -39.08,-69.9l-97.26 58.28c12.5,20.87 24.54,42.4 35.76,63.97z"/>
   <path class="fil2" d="M2572.12 2619.06c-9.48,9.1 -19.09,18.05 -28.84,26.87l-76.08 -84.09c8.94,-8.09 17.76,-16.29 26.45,-24.62l78.47 81.84z"/>
   <polygon class="fil2" points="562.52,2085.16 343.34,2173.25 341.42,2168.45 560.94,2081.19 "/>
   <path class="fil2" d="M479.44 1674.03l-236.18 4.53 -0.16 -10.25 236.21 -2.79 0.13 8.51zm0.14 -51.25l-0.18 8.68 -236.18 -4.18 0.19 -10.09 236.17 5.59zm1.44 93.95l-235.88 12.91 -0.53 -10.24 235.97 -11.16 0.44 8.49zm0.36 -136.51l-0.49 8.49 -235.89 -12.52 0.58 -10.25 235.8 14.28zm2.74 178.94l-235.23 21.64 -0.9 -10.22 235.39 -19.87 0.74 8.45zm0.6 -221.55l-0.8 8.65 -235.27 -21.24 0.93 -10.05 235.14 22.64zm4.07 264.02l-234.32 29.99 -1.25 -10.02 234.49 -28.57 1.08 8.6zm0.83 -306.46l-1.13 8.61 -234.35 -29.61 1.29 -10.01 234.19 31.01zm5.36 348.53l-233.05 38.71 -1.63 -10.13 233.31 -36.97 1.37 8.39zm1.05 -390.6l-1.42 8.56 -233.11 -38.27 1.67 -9.98 232.86 39.69zm6.69 432.56l-231.49 47.06 -1.98 -9.9 231.77 -45.66 1.7 8.5zm1.26 -474.28l-1.7 8.3 -231.58 -46.67 2.08 -10.1 231.2 48.47zm7.97 515.7l-229.53 55.82 -2.4 -10.07 229.98 -53.92 1.95 8.17zm1.54 -557.29l-2.04 8.38 -229.65 -55.32 2.4 -9.86 229.29 56.8zm9.27 598.53l-227.35 64.16 -2.76 -9.94 227.85 -62.36 2.26 8.14zm1.75 -639.66l-2.34 8.25 -227.48 -63.65 2.78 -9.82 227.04 65.22zm10.54 680.41l-224.82 72.5 -3.13 -9.82 225.39 -70.73 2.56 8.05zm2.02 -721.2l-2.69 8.29 -224.95 -72.09 3.12 -9.65 224.52 73.45zm11.81 761.6l-222.07 80.52 -3.44 -9.55 222.6 -79.08 2.91 8.11zm2.21 -801.83l-2.89 7.93 -222.24 -80.09 3.58 -9.78 221.55 81.94zm15.6 -39.91l-3.29 8.07 -219.01 -88.51 3.82 -9.38 218.48 89.82zm16.97 -39.12l-3.55 7.87 -215.61 -96.52 4.2 -9.29 214.96 97.94zm18.41 -38.45l-3.78 7.6 -211.97 -104.25 4.6 -9.27 211.15 105.92zm19.89 -37.94l-4.08 7.52 -208.08 -111.85 4.9 -9.03 207.26 113.36zm21.19 -37.03l-4.4 7.43 -203.71 -119.59 5.18 -8.76 202.93 120.92zm22.51 -36.19l-4.61 7.19 -199.24 -126.92 5.56 -8.64 198.29 128.37zm23.89 -35.44l-4.95 7.12 -194.39 -134.23 5.79 -8.31 193.55 135.42zm25.1 -34.46l-5.21 6.94 -189.31 -141.29 6.08 -8.1 188.44 142.45zm26.25 -33.42l-5.29 6.54 -184.15 -147.96 6.53 -8.06 182.91 149.48zm27.55 -32.55l-5.53 6.34 -178.62 -154.6 6.83 -7.81 177.32 156.07zm28.78 -31.62l-5.74 6.14 -173.03 -160.84 7.1 -7.56 171.67 162.26zm30.09 -30.71l-6.32 6.27 -166.86 -167.21 7.02 -6.96 166.16 167.9zm30.73 -29.17l-6.35 5.87 -160.64 -173.19 7.44 -6.86 159.55 174.18zm31.94 -28.17l-6.46 5.54 -154.4 -178.79 7.79 -6.67 153.07 179.92zm32.81 -26.89l-6.55 5.2 -147.74 -184.32 8.13 -6.46 146.16 185.58zm33.96 -25.85l-6.76 4.99 -141 -189.53 8.32 -6.14 139.44 190.68zm34.91 -24.61l-7.09 4.84 -133.93 -194.59 8.39 -5.73 132.63 195.48zm35.7 -23.26l-7.31 4.62 -126.73 -199.35 8.53 -5.39 125.51 200.12zm36.42 -21.87l-7.43 4.32 -119.38 -203.85 8.78 -5.1 118.03 204.63zm37.3 -20.6l-7.63 4.07 -111.9 -208.04 8.89 -4.74 110.64 208.71zm37.81 -19.1l-7.65 3.72 -104.24 -211.97 9.19 -4.47 102.7 212.72zm38.53 -17.72l-7.69 3.4 -96.46 -215.63 9.41 -4.16 94.74 216.39zm39.05 -16.27l-7.69 3.08 -88.46 -219.05c3.24,-1.3 6.49,-2.61 9.74,-3.88l86.41 219.85zm40.14 -15.01l-8.16 2.91 -80.11 -222.22 9.51 -3.4 78.76 222.71zm40.21 -13.37l-7.95 2.51 -72.09 -224.96 9.95 -3.14 70.09 225.59zm40.99 -11.97l-8.16 2.25 -63.74 -227.46 9.96 -2.75 61.94 227.96zm41.3 -10.43l-8.19 1.94 -55.41 -229.64 10.08 -2.39 53.52 230.09zm41.75 -8.91l-8.48 1.68 -46.67 -231.58 9.96 -1.96 45.19 231.86zm41.92 -7.35l-8.39 1.34 -38.33 -233.1 10.14 -1.62 36.58 233.38zm42.29 -5.84l-8.6 1.05 -29.61 -234.35 10.03 -1.24 28.18 234.54zm42.35 -4.27l-8.46 0.73 -21.26 -235.27 10.25 -0.89 19.47 235.43zm42.5 -2.73l-8.5 0.43 -12.55 -235.9 10.27 -0.5 10.78 235.97zm42.74 -1.2l-8.5 0.13 -4.19 -236.19 10.25 -0.15 2.44 236.21z"/>
   <polygon class="fil2" points="1677.31,250.3 1671.75,486.46 1667.4,486.37 1672.24,250.19 "/>
   <path class="fil4" d="M2943.73 1651.58c0,716.32 -582.77,1299.08 -1299.07,1299.08 -233.62,0 -462.73,-62.75 -662.58,-181.46l115.82 -194.97c164.82,97.9 353.89,149.65 546.76,149.65 591.26,0 1072.29,-481.03 1072.29,-1072.3 0,-224.51 -68.62,-439.46 -198.43,-621.59l184.68 -131.62c157.35,220.78 240.53,481.24 240.53,753.21z"/>
   <path class="fil0" d="M524.94 2301.26l187.49 -109.91c-20.79,-35.82 -39.63,-73.11 -56.09,-110.97l-199.7 85.72c20.02,46.17 42.98,91.59 68.3,135.16zm200.41 -106.53l-203.78 119.47 -2.39 -4.09c-27.27,-46.49 -51.87,-95.16 -73.1,-144.62l-1.86 -4.34 217.07 -93.18 1.86 4.34c17.36,40.44 37.48,80.25 59.81,118.34l2.39 4.08z"/>
   <path class="fil2" d="M435.96 2128.5l210.92 -83.29c-16.25,-41.16 -30.06,-83.76 -41.04,-126.62l-219.68 56.27c13.32,52 30.08,103.7 49.8,153.64z"/>
   <path class="fil2" d="M350.17 1541.68l225.98 18.96c3.72,-44.24 10.23,-88.6 19.35,-131.82l-221.89 -46.85c-11.06,52.4 -18.94,106.14 -23.44,159.71z"/>
   <path class="fil2" d="M348.6 1740.76l226.25 -15.34c-2.99,-44.1 -3.28,-89.32 -0.86,-133.45l-226.43 -12.42c-2.93,53.34 -2.59,107.93 1.04,161.21z"/>
   <path class="fil0" d="M380.85 1932.29l212.02 -47.72c-8.87,-40.29 -15.49,-81.55 -19.67,-122.77l-216.32 21.01c5.08,50.19 13.13,100.43 23.97,149.48zm223.31 -40.58l-230.46 51.87 -1.04 -4.61c-11.79,-52.41 -20.43,-106.23 -25.64,-159.95l-0.46 -4.69 235.11 -22.85 0.47 4.69c4.27,43.99 11.33,88.04 20.98,130.93l1.04 4.61z"/>
   <path class="fil2" d="M622.01 1328c-7.26,22.96 -13.81,46.46 -19.49,69.86l-220.39 -53.44c6.89,-28.4 14.85,-56.93 23.66,-84.8l216.22 68.38z"/>
   <path class="fil3" d="M2246.74 500.18l-105.25 200.88c-154.23,-80.81 -321.39,-121.78 -496.84,-121.78 -203.82,0 -402.06,57.38 -573.29,165.94 -166.8,105.76 -301.16,255.04 -388.52,431.72l-203.28 -100.53c105.79,-213.94 268.45,-394.7 470.37,-522.72 207.61,-131.62 447.84,-201.19 694.72,-201.19 209.49,0 417.68,51.07 602.09,147.68z"/>
   <path class="fil4" d="M1691.46 3198.74c-15.57,0.45 -31.32,0.69 -46.8,0.69 -267.77,0 -531.66,-69.47 -763.15,-200.9 -224.46,-127.44 -415.25,-310.69 -551.77,-529.96l40.1 -24.97c276.26,443.7 752.82,708.58 1274.82,708.58 15.02,0 30.3,-0.22 45.41,-0.67l1.39 47.23z"/>
  </g>
 </g>
</svg>
