<?xml version="1.0" encoding="UTF-8"?>
<!DOCTYPE svg PUBLIC "-//W3C//DTD SVG 1.1//EN" "http://www.w3.org/Graphics/SVG/1.1/DTD/svg11.dtd">
<!-- Creator: CorelDRAW 2019 (64 Bit) -->
<svg xmlns="http://www.w3.org/2000/svg" xml:space="preserve" width="338.667mm" height="338.667mm" version="1.1" style="shape-rendering:geometricPrecision; text-rendering:geometricPrecision; image-rendering:optimizeQuality; fill-rule:evenodd; clip-rule:evenodd"
viewBox="0 0 33866.66 33866.66"
 xmlns:xlink="http://www.w3.org/1999/xlink">
 <defs>
  <style type="text/css">
   <![CDATA[
    .fil2 {fill:#CFD1D2;fill-rule:nonzero;fill-opacity:0.501961}
    .fil3 {fill:#E6E6E6;fill-rule:nonzero;fill-opacity:0.501961}
    .fil0 {fill:#F0F1F1;fill-rule:nonzero;fill-opacity:0.501961}
    .fil1 {fill:url(#id0);fill-opacity:0.501961}
   ]]>
  </style>
  <radialGradient id="id0" gradientUnits="userSpaceOnUse" gradientTransform="matrix(2.67065E-14 -0.999998 -0.999998 -2.67065E-14 32965 32965)" cx="16750.76" cy="16213.88" r="7223.1" fx="16750.76" fy="16213.88">
   <stop offset="0" style="stop-opacity:1; stop-color:white"/>
   <stop offset="0.568627" style="stop-opacity:1; stop-color:white"/>
   <stop offset="0.403922" style="stop-opacity:1; stop-color:#EEEFEF"/>
   <stop offset="1" style="stop-opacity:1; stop-color:#DDDFE0"/>
  </radialGradient>
 </defs>
 <g id="Camada_x0020_1">
  <metadata id="CorelCorpID_0Corel-Layer"/>
  <g id="_2417948909696">
   <path class="fil0" d="M8723.29 16213.87c0,4426.29 3601.16,8027.46 8027.46,8027.46 4426.29,0 8027.46,-3601.17 8027.46,-8027.46 0,-4426.3 -3601.17,-8027.46 -8027.46,-8027.46 -4426.3,0 -8027.46,3601.16 -8027.46,8027.46zm16149.02 0c0,4478.26 -3643.3,8121.58 -8121.56,8121.58 -4478.27,0 -8121.56,-3643.32 -8121.56,-8121.58 0,-4478.27 3643.29,-8121.56 8121.56,-8121.56 4478.26,0 8121.56,3643.29 8121.56,8121.56z"/>
   <path class="fil1" d="M16750.77 8990.78c3989.2,0 7223.09,3233.89 7223.09,7223.09 0,3989.22 -3233.89,7223.11 -7223.09,7223.11 -3989.22,0 -7223.11,-3233.89 -7223.11,-7223.11 0,-3989.2 3233.89,-7223.09 7223.11,-7223.09l0 0z"/>
   <path class="fil2" d="M9841.57 3012.89c-4926.91,2584 -7987.54,7642.23 -7987.54,13200.98 0,1437.13 204.34,2858.16 607.1,4223.28l-180.55 53.39c-407.9,-1382.63 -614.78,-2821.47 -614.78,-4276.67 0,-5628.97 3099.29,-10751.1 8088.34,-13367.65l87.43 166.67z"/>
   <path class="fil2" d="M31026.95 10380.58l-435.5 178.2c-1962.33,-4797.44 -6352.58,-8285.64 -11457.68,-9103.35l74.46 -464.77c5266.04,843.59 9794.73,4441.56 11818.72,9389.92z"/>
   <path class="fil2" d="M32168.79 16213.87c0,3975.75 -1509.14,7750.55 -4249.35,10629.04l-340.91 -324.54c2828.14,-2970.72 4305.46,-6923.87 4101.01,-11057.38l470.04 -23.13c12.81,258.34 19.21,519.43 19.21,776.01z"/>
   <polygon class="fil0" points="31379.07,9589.02 29576.85,10400.35 29559.98,10363.46 31356.95,9540.38 "/>
   <path class="fil0" d="M31577.86 10046.07l-1825.09 758.88 -33.59 -80.09 1819.54 -771.87 39.14 93.08zm185.43 465.62l-1848.06 701.01 -31.14 -81.24 1843.05 -713.98 36.15 94.21zm170.35 470.87l-1868.95 643.23 -28.79 -82.63 1864.81 -655.47 32.93 94.87zm156.45 478.53l-1889.58 579.6 -25.13 -80.5 1883.81 -597.95c10.57,32.87 20.81,65.8 30.9,98.85zm140.6 480.19l-1906.51 521.53 -22.76 -81.32 1901.42 -539.89c9.31,33.14 18.73,66.35 27.85,99.68zm124.89 483.22l-1920.98 464.95 -21.1 -85.64 1918.47 -475.97 23.61 96.66zm110.61 490.75l-1935.59 400.47 -17.5 -82.93 1931.62 -418.26c7.25,33.51 14.4,67.02 21.47,100.72zm94.1 487.81l-1945.65 347.96 -16.09 -89.4 1944.53 -354.07 17.21 95.51zm79.91 498.57l-1956.86 278.7 -12.41 -84.15 1954.33 -296.12 14.94 101.57zm63.26 492.35l-1963.45 226.25 -10.54 -90.26 1962.78 -232.28 11.21 96.29zm48.85 502.49l-1970.31 156.72 -7.18 -84.71 1968.82 -174.3 8.67 102.29zm17.42 2399.16l-6.78 96.74 -1971.56 -139.11 6.22 -90.82 1972.12 133.19zm15.23 -1904.17l-1973.8 104.56 -4.8 -90.71 1973.43 -110.51 5.17 96.66zm10.36 1402.77l-3.77 99.87 -1974.92 -81.32 3.39 -88.1 1975.3 69.55zm7.15 -898.28l-1976.15 34.82 -1.98 -85.08 1975.78 -52.32 2.35 102.58zm2.93 399.26l-0.77 96.93 -1976.53 -17.31 0.75 -91.19 1976.55 11.57z"/>
   <polygon class="fil0" points="32728.08,17800.68 32723.47,17847.1 30757.11,17648.02 30761.62,17601.73 "/>
   <polygon class="fil2" points="30226.37,24944.5 30200.67,24983.96 28543.67,23906.36 28569.47,23866.93 "/>
   <path class="fil2" d="M12144.44 29521.64l-646.77 1867.73 -94.42 -33.03 659.05 -1863.4 82.14 28.7zm414.61 136.18l-588.24 1887.04 -94.42 -29.75 598.81 -1883.63 83.85 26.34zm417.81 123.02l-527.25 1904.99 -97.25 -27.29 541.5 -1900.94 83 23.24zm423.06 110.4l-469.17 1920.07 -96.58 -23.91 480.77 -1917.13 84.98 20.97zm424.96 96.77l-407.73 1933.99 -98.63 -21.18 422.23 -1930.88 84.13 18.07zm429.57 83.77l-349.38 1945.36 -96.55 -17.58 358.39 -1943.79 87.54 16.01zm430.61 70.12l-288.12 1955.34 -97.22 -14.57 297.51 -1953.95 87.83 13.18zm432.67 56.64l-226.83 1963.55 -99.01 -11.76 239.05 -1962.04 86.79 10.25zm434.64 43.41l-165.84 1969.56 -99.2 -8.65 177.8 -1968.54 87.24 7.63zm435.68 29.93l-104.74 1973.8 -99.39 -5.55 116.59 -1973.16 87.54 4.91zm436.46 16.57l-43.68 1976.15 -100.9 -2.64 58.45 -1975.7 86.13 2.19zm452.51 1979.72l-97.7 0.56 -5.81 -1976.52 89.03 -0.48 14.48 1976.44zm497.16 -11.31l-100.35 3.5 -61.36 -1975.59 85.64 -3.02 76.07 1975.11zm497.04 -26.62l-100.53 6.69 -122.54 -1972.79 85.94 -5.63 137.13 1971.73zm494.62 -41.79l-97.7 9.5 -186.28 -1967.77 88.28 -8.56 195.7 1966.83zm494.51 -57.22l-96.95 12.43 -248.02 -1960.92 88.39 -11.31 256.58 1959.8zm492.99 -72.57l-98.45 15.82 -306.07 -1952.83 86.12 -13.74 318.4 1950.75zm490.56 -87.81l-99.41 19.11 -364.52 -1942.67 84.15 -16.09 379.78 1939.65zm485.18 -102.61l-97.68 21.93 -425.44 -1930.2 83.78 -18.73 439.34 1927zm482.29 -117.74l-94.98 24.47 -488.96 -1915.05 85.18 -21.93 498.76 1912.51zm478.87 -132.81l-96.18 27.96 -545.25 -1899.82 82.54 -24.09 558.89 1895.95zm474.11 -147.56l-95.17 30.94 -603.87 -1882.02 81.88 -26.63 617.16 1877.71zm470.39 -162.56l-95.06 34.17 -661.74 -1862.46 80.17 -28.9 676.63 1857.19zm462.71 -176.46l-91.68 36.23 -720.97 -1840.35 81.51 -32.29 731.14 1836.41zm459.4 -191.65l-90.45 39.06 -779.24 -1816.41 80.5 -34.85 789.19 1812.2zm451.95 -205.27l-90.33 42.37 -832.23 -1792.84 78.6 -36.79 843.96 1787.26zm446.7 -219.87l-87.8 44.61 -891.05 -1764.37 78.6 -39.83 900.25 1759.59zm439.66 -233.69l-87.64 48 -944.12 -1736.43 75.96 -41.7 955.8 1730.13zm431.15 -246.6l-85.08 49.97 -998.71 -1705.56 75.85 -44.69 1007.94 1700.28zm423.27 -259.86l-83.4 52.61 -1050.2 -1674.4 74.55 -47.06 1059.05 1668.85zm415.36 -273.04l-83.11 56.08 -1098.38 -1643.24 71.71 -48.4 1109.78 1635.56zm407.82 -286.52l-80.94 58.35 -1151 -1606.71 70.49 -50.83 1161.45 1599.19zm396.81 -297.51l-78.12 60.06 -1199.84 -1570.62 69.82 -53.73 1208.14 1564.29zm389.93 -311.54l-77.75 63.72 -1247.47 -1533.14 66.73 -54.66 1258.49 1524.08zm377.81 -321.43l-74.35 64.85 -1294.91 -1493.32 66.43 -57.98 1302.83 1486.45zm368.4 -333.56l-72.3 67.1 -1339.52 -1453.41 64.75 -59.95 1347.07 1446.26zm360.1 -346.91l-71.64 70.78 -1384.42 -1410.7 61.37 -60.62 1394.69 1400.54zm346.46 -354.85l-67.31 70.6 -1429.32 -1365.13 61.65 -64.75 1434.98 1359.28zm336.94 -367.16l-66.46 74.35 -1468.65 -1322.86 58.27 -64.94 1476.84 1313.45zm325.39 -377.23l-64.86 77.08 -1508.11 -1277.7 55.44 -65.87 1517.53 1266.49zm313.03 -386.46l-61.84 78.31 -1547.54 -1229.7 54.03 -68.33 1555.35 1219.72zm300.82 -395.98l-58.56 79.08 -1585.64 -1179.81 52.61 -71.16 1591.59 1171.89zm289.61 -406.42l-58.46 84.15 -1618.02 -1135.09 48.29 -69.56 1628.19 1120.5z"/>
   <polygon class="fil2" points="11721.2,29367.46 11015.09,31213.52 10967.76,31195.35 11680.8,29351.91 "/>
   <path class="fil0" d="M26072.63 11558.29l-841.69 421.19c-1617.95,-3233.3 -4867.26,-5241.95 -8480.19,-5241.95 -1569.82,0 -3124.69,391.55 -4496.41,1132.45l-447.26 -828.06c1508.66,-814.88 3218.18,-1245.6 4943.67,-1245.6 3971.51,0 7543.49,2207.89 9321.88,5761.97z"/>
   <path class="fil2" d="M27597.68 18466.85c-508.25,2458.41 -1861.03,4696.02 -3809.13,6300.5 -1975.22,1626.99 -4474.7,2522.92 -7037.78,2522.92 -611.42,0 -1225.08,-50.37 -1823.96,-149.67l369.51 -2228.49c477.09,79.16 966.43,119.26 1454.45,119.26 4162.19,0 7793.64,-2953.14 8634.72,-7021.87l2212.19 457.35z"/>
   <path class="fil2" d="M21194.84 4775.92l378.82 -963.51c-92.33,-35.94 -185.13,-70.87 -278.51,-104.75l-350.22 974.24c83.69,30.5 166.99,61.85 249.91,94.02zm500.91 -1016.79l-447.74 1138.77 -43.67 -17.23c-111.15,-43.65 -223.07,-85.73 -335.56,-126.2l-44.31 -15.93 414.04 -1151.37 44.32 15.91c123.87,44.52 246.97,90.73 369.06,138.84l43.86 17.21z"/>
   <path class="fil2" d="M29955.75 18186.6c38.88,-261.67 70.33,-528.5 93.46,-792.98l-1125.19 -98.45c-21.19,242.07 -49.89,486.22 -85.38,725.59l1117.11 165.84z"/>
   <path class="fil2" d="M29692.5 19305.37c53.84,-226.91 102.32,-457.43 144.21,-686.31l-1019.15 -182.52c-38.2,208.58 -82.36,418.74 -131.39,625.8l1006.33 243.03zm253.49 -762.38l-8.3 46.32c-46.88,261.35 -102.21,525.08 -164.69,783.93l-11.02 45.73 -1189.31 -287.15 11.02 -45.76c56.75,-235.4 107.01,-475.11 149.65,-712.49l8.19 -46.29 1204.46 215.71z"/>
   <path class="fil2" d="M30033.79 16945.32c12.62,-232.46 19.29,-467.48 19.88,-699.68l-1035.34 0c-0.56,212.69 -6.67,427.49 -18.06,639.92l1033.52 59.76zm113.98 -793.8l0 62.4c0,259.97 -7.61,523.67 -22.57,783.83l-2.75 46.98 -1221.59 -70.7 2.75 -46.96c13.74,-236.33 20.59,-476.26 20.59,-713.15l0 -62.4 1223.57 0z"/>
   <path class="fil2" d="M29363.75 20452.98c74.36,-221.47 143.43,-446.71 205.73,-670.71l-998.6 -273.52c-56.96,204.79 -119.82,409.99 -187.32,611.13l980.19 333.1zm321.42 -736.61l-12.44 45.38c-70.11,255.92 -149.16,513.62 -234.91,766.04l-15.16 44.6 -1158.44 -393.6 15.16 -44.51c77.64,-228.54 149.27,-462.6 213.17,-695.75l12.43 -45.36 1180.19 323.2z"/>
   <path class="fil2" d="M28965.48 15833.76l1128.87 -34.44c-8.08,-265.15 -24.19,-533.01 -47.91,-796.18l-1124.82 101.27c21.74,241.05 36.41,486.32 43.86,729.35z"/>
   <path class="fil2" d="M28924.47 14688.9l1027.89 -123.77c-28.78,-231.9 -63.81,-464.57 -104.26,-692.9l-1018.77 184.65c36.9,208.4 68.89,420.53 95.14,632.02zm1132.75 -41.59l-1214.82 146.26 -5.63 -46.69c-29,-240.76 -65.52,-482.94 -108.34,-719.53l-8.38 -46.32 1203.79 -218.27 8.49 46.32c47.14,260.31 87.35,526.69 119.26,791.54l5.63 46.69z"/>
   <path class="fil2" d="M26203.15 23959.94l873.37 716.16c168.37,-205.38 332.43,-417.91 487.36,-631.46l-914.21 -663.18c-141.94,195.59 -292.15,390.22 -446.52,578.48z"/>
   <path class="fil2" d="M26276.33 25499.95c162.35,-166.48 322.16,-339.21 475.97,-514.47l-780.54 -680.2c-140.53,159.81 -286.22,317.46 -434.27,469.3l738.84 725.37zm608.76 -523.49l-30.87 35.49c-174.86,200.55 -357.75,398.22 -543.73,587.6l-32.85 33.59 -873.15 -857.26 33.03 -33.59c168.86,-171.97 335.07,-351.82 494.22,-534.34l30.89 -35.46 922.46 803.97z"/>
   <path class="fil2" d="M27780.97 23652.66c130.36,-192.84 256.85,-391.26 377.15,-590.98l-889.08 -530.66c-109.74,182.33 -225.21,363.22 -343.9,539.04l855.83 582.6zm506.28 -623.56l-24.09 40.48c-136.39,228.35 -281.34,455.55 -430.8,675.05l-26.44 38.87 -1011.44 -688.61 26.47 -38.87c135.72,-199.32 267.49,-405.75 391.45,-613.55l24.17 -40.48 1050.68 627.11z"/>
   <path class="fil2" d="M28403.79 22635.36c112.37,-203.59 220.72,-412.63 322.64,-622.52l-933.03 -448.78c-92.68,190.89 -191.53,381.39 -294.19,567.64l904.58 503.66zm448.3 -666.57l-20.44 42.45c-115.47,240.01 -239.42,479.25 -368.47,711.07l-22.87 41.14 -1069.03 -595.12 22.89 -41.14c117.63,-211.49 230.4,-428.91 334.86,-646.32l20.33 -42.37 1102.73 530.29z"/>
   <path class="fil2" d="M28933.3 21565.74c94.21,-214.69 183.16,-432.59 265.04,-649.07l-969.71 -362.74c-74.65,197.57 -155.97,396.25 -241.9,592.13l946.57 419.68zm386.27 -704.11l-16.38 44.05c-92.61,247.05 -194.44,496.48 -302.87,741.27l-19.02 43.04 -1118.71 -496.04 19.1 -43c98.74,-222.51 191.35,-449.35 275.31,-673.99l16.57 -44.05 1146 428.72z"/>
   <path class="fil2" d="M22200.64 5220.25l464.12 -925.5c-209.81,-104.29 -423.46,-203.49 -636.26,-295.53l-407.64 951.64c194.47,84.23 389.21,174.7 579.78,269.39zm590.43 -967.47l-548.44 1093.66 -42.07 -21.07c-216.4,-108.51 -438.51,-211.68 -660.09,-306.63l-43.19 -18.47 481.81 -1124.74 43.2 18.54c243.02,104.11 487.65,217.71 726.7,337.61l42.08 21.1z"/>
   <path class="fil2" d="M24925.56 7066.84l693.2 -768.97c-173.37,-155.19 -352.76,-307.48 -534.43,-453.66l-646.24 808.99c165.58,133.26 329.15,272.08 487.47,413.64zm826.2 -775.93l-819.24 908.82 -35.03 -31.51c-179.29,-161.7 -366.02,-320.1 -554.83,-470.98l-36.79 -29.37 763.79 -955.99 36.79 29.37c207.81,166.11 413.19,340.44 610.38,518.12l34.93 31.54z"/>
   <path class="fil2" d="M25712.16 7835.99l758.88 -704.4c-158.58,-169.6 -323.76,-337.23 -491.95,-499.31l-715.71 748.26c152.77,147.2 303.46,300.04 448.78,455.45zm891.96 -699.51l-896.87 832.51 -31.99 -34.55c-164.61,-177.31 -336.48,-351.82 -510.78,-518.52l-34.07 -32.55 845.86 -884.17 33.96 32.55c192.68,184.3 381.66,376.11 561.82,570.28l32.07 34.45z"/>
   <path class="fil2" d="M23178.24 5818.2l594.86 -960.05c-225.23,-139.67 -457.72,-274.16 -690.77,-400.01l-536.37 994.01c213.28,115.02 426.08,238.22 632.28,366.05z"/>
   <path class="fil2" d="M28740.38 13604.95l1012.82 -215.44c-49.49,-228.06 -105.23,-456.68 -166.4,-681.05l-997.86 275.68c55.61,204.71 106.43,413.11 151.44,620.81zm1124.45 -143.06l-1196.83 254.69 -9.79 -46.02c-50.16,-236.44 -108.24,-474.26 -172.52,-706.75l-12.54 -45.28 1179.33 -325.84 12.62 45.36c70.6,255.64 134.5,517.4 190.04,777.93l9.69 45.91z"/>
   <path class="fil2" d="M26426.7 8671.9l818.57 -633.89c-143.62,-184.11 -293.19,-365.75 -445.29,-541.12l-779.5 681.35c139.02,160.38 275.38,326.14 406.22,493.66zm950.71 -617.24l-967.46 749.2 -28.82 -37.17c-148.04,-191.08 -303.61,-380.16 -462.39,-561.9l-31.08 -35.48 921.36 -805.31 30.87 35.48c174.3,199.36 345.51,407.27 508.73,617.99l28.79 37.19z"/>
   <path class="fil2" d="M24073.86 6370.87l621.77 -827.88c-187.5,-139.69 -379.86,-275.41 -572.81,-404.17l-571.51 863.39c176.94,118.11 352.28,241.88 522.55,368.66zm753.63 -846.71l-734.9 978.38 -37.65 -28.23c-192.84,-144.85 -392.94,-286.12 -594.82,-419.68l-39.17 -25.98 675.32 -1020.37 39.25 25.98c220.72,146.08 440.85,301.38 654.21,461.67l37.76 28.23z"/>
   <path class="fil2" d="M27064.03 9567.97l871.76 -558.6c-126.4,-195.67 -259.11,-389.95 -395.31,-578.47l-837.11 609.34c123.96,171.69 245,348.92 360.66,527.73zm1001.83 -530.08l-1030.24 660.06 -25.32 -39.62c-130.84,-204.04 -268.99,-406.12 -410.66,-600.85l-27.67 -38.05 989.21 -720.11 27.67 38.12c156.16,214.59 308.15,436.91 451.58,660.84l25.43 39.61z"/>
   <path class="fil2" d="M28059.11 11572.51l1044.73 -429.09c-100.42,-244.55 -209.89,-489.71 -325.1,-728.5l-1017.16 491.2c105.51,218.46 205.56,442.65 297.53,666.39z"/>
   <path class="fil2" d="M28459.87 12543.33l989.21 -305.88c-69.77,-222.59 -145.92,-445.1 -226.84,-662.78l-969.06 364.52c73.58,198.21 142.95,400.95 206.69,604.14zm1106.94 -243.74l-1168.97 361.4 -13.93 -44.9c-71.53,-231.53 -150.79,-462.98 -235.4,-687.83l-16.48 -44.05 1145.25 -430.78 16.49 44.05c93.36,247.91 180.41,502.71 259.12,757.2l13.92 44.91z"/>
   <path class="fil2" d="M27598.24 10580.18l1001.91 -521.41c-122.17,-234.83 -253.27,-469.11 -389.37,-696.32l-968.77 580.53c124.52,207.92 244.42,422.34 356.23,637.2z"/>
   <path class="fil2" d="M25989.18 25850.84c-94.47,90.63 -190.2,179.85 -287.34,267.68l-757.76 -837.67c89.03,-80.49 176.86,-162.18 263.43,-245.18l781.67 815.17z"/>
   <polygon class="fil2" points="5971.69,20532.75 3788.48,21410.14 3769.37,21362.33 5955.97,20493.24 "/>
   <path class="fil2" d="M5144.19 16437.5l-2352.55 45.17 -1.6 -102.11 2352.84 -27.77 1.31 84.71zm1.41 -510.52l-1.79 86.49 -2352.63 -41.59 1.98 -100.5 2352.44 55.6zm14.3 935.85l-2349.53 128.57 -5.26 -101.95 2350.39 -111.14 4.4 84.52zm3.58 -1359.77l-4.81 84.63 -2349.69 -124.73 5.73 -102.1 2348.77 142.2zm27.29 1782.46l-2343.03 215.54 -9.04 -101.83 2344.73 -197.94 7.34 84.23zm6.03 -2206.83l-8.01 86.1 -2343.5 -211.57 9.31 -100.05 2342.2 225.52zm40.47 2629.81l-2334 298.73 -12.41 -99.75 2335.69 -284.62 10.72 85.64zm8.3 -3052.6l-11.21 85.75 -2334.38 -294.9 12.89 -99.75 2332.7 308.9zm53.36 3471.63l-2321.31 385.61 -16.27 -100.91 2324.03 -368.18 13.55 83.48zm10.54 -3890.67l-14.22 85.27 -2321.95 -381.17 16.65 -99.41 2319.52 395.31zm66.64 4308.67l-2305.86 468.81 -19.77 -98.66 2308.69 -454.78 16.94 84.63zm12.52 -4724.21l-16.95 82.63 -2306.71 -464.84 20.71 -100.64 2302.95 482.85zm79.42 5136.84l-2286.35 555.95 -23.94 -100.23 2290.82 -537.15 19.47 81.43zm15.34 -5551.15l-20.41 83.48 -2287.5 -551.07 23.9 -98.18 2284.01 565.77zm92.26 5961.88l-2264.56 639.07 -27.48 -99.01 2269.52 -621.11 22.52 81.05zm17.5 -6371.6l-23.34 82.18 -2265.95 -634 27.75 -97.78 2261.54 649.6zm104.94 6777.54l-2239.4 722.19 -31.17 -97.88 2245.06 -704.51 25.51 80.2zm20.14 -7183.85l-26.81 82.63 -2240.74 -718.14 31.16 -96.1 2236.39 731.61zm117.66 7586.21l-2212.03 802.1 -34.26 -95.17 2217.29 -787.69 29 80.76zm22.01 -7986.88l-28.79 78.97 -2213.71 -797.78 35.67 -97.41 2206.83 816.22zm155.41 -397.56l-32.76 80.39 -2181.62 -881.64 38.1 -93.46 2176.28 894.71zm169.04 -389.66l-35.4 78.39 -2147.65 -961.44 41.81 -92.53 2141.24 975.58zm183.35 -382.99l-37.65 75.69 -2111.42 -1038.43 45.84 -92.34 2103.23 1055.08zm198.12 -377.89l-40.66 74.83 -2072.65 -1114.09 48.85 -89.91 2064.46 1129.17zm211.09 -368.85l-43.83 73.98 -2029.17 -1191.2 51.58 -87.35 2021.42 1204.57zm224.22 -360.5l-45.94 71.56 -1984.64 -1264.26 55.36 -86.01 1975.22 1278.71zm237.93 -353.03l-49.33 70.86 -1936.24 -1336.98 57.6 -82.81 1927.97 1348.93zm249.99 -343.26l-51.87 69.07 -1885.7 -1407.36 60.62 -80.68 1876.95 1418.97zm261.54 -332.91l-52.69 65.12 -1834.32 -1473.82 65.05 -80.28 1821.96 1488.98zm274.38 -324.24l-55.07 63.15 -1779.17 -1539.91 67.98 -77.82 1766.26 1554.58zm286.67 -314.93l-57.2 61.1 -1723.46 -1602.05 70.7 -75.37 1709.96 1616.32zm299.7 -305.89l-62.89 62.41 -1662.07 -1665.57 69.85 -69.26 1655.11 1672.42zm306.18 -290.54l-63.34 58.43 -1600.07 -1725.12 74.09 -68.33 1589.32 1735.02zm318.13 -280.67l-64.38 55.25 -1537.94 -1780.96 77.56 -66.46 1524.76 1792.17zm326.77 -267.87l-65.23 51.84 -1471.66 -1836 81.03 -64.38 1455.86 1848.54zm338.28 -257.43l-67.29 49.7 -1404.56 -1887.86 82.92 -61.18 1388.93 1899.34zm347.77 -245.19l-70.68 48.29 -1333.99 -1938.32 83.51 -57.04 1321.16 1947.07zm355.59 -231.63l-72.84 46.05 -1262.36 -1985.76 85 -53.65 1250.2 1993.36zm362.74 -217.87l-73.99 43.01 -1189.12 -2030.47 87.46 -50.83 1175.65 2038.29zm371.59 -205.2l-76.06 40.58 -1114.58 -2072.25 88.58 -47.25 1102.06 2078.92zm376.56 -190.22l-76.14 37.08 -1038.33 -2111.49 91.49 -44.51 1022.98 2118.92zm383.84 -176.57l-76.62 33.88 -960.79 -2147.83 93.75 -41.49 943.66 2155.44zm389 -161.97l-76.63 30.6 -881.15 -2181.91c32.28,-12.99 64.67,-25.98 97.03,-38.68l860.75 2189.99zm399.82 -149.57l-81.32 29 -797.97 -2213.52 94.8 -33.88 784.49 2218.4zm400.49 -133.16l-79.16 25.03 -718.06 -2240.82 99.12 -31.27 698.1 2247.06zm408.28 -119.26l-81.21 22.41 -634.95 -2265.68 99.22 -27.4 616.94 2270.67zm411.41 -103.92l-81.62 19.4 -551.9 -2287.42 100.43 -23.8 533.09 2291.82zm415.83 -88.73l-84.44 16.75 -464.85 -2306.71 99.2 -19.58 450.09 2309.54zm417.62 -73.24l-83.59 13.37 -381.76 -2321.87 100.98 -16.09 364.37 2324.59zm421.27 -58.16l-85.74 10.54 -294.87 -2334.38 99.84 -12.33 280.77 2336.17zm421.84 -42.45l-84.34 7.23 -211.75 -2343.5 102.13 -8.84 193.96 2345.11zm423.28 -27.21l-84.63 4.24 -125 -2349.72 102.24 -5.07 107.39 2350.55zm425.78 -11.96l-84.71 1.23 -41.67 -2352.63 102.1 -1.52 24.28 2352.92z"/>
   <polygon class="fil2" points="17076.03,2255.9 17020.69,4608.27 16977.31,4607.31 17025.5,2254.78 "/>
   <path class="fil3" d="M29690.69 16213.87c0,7135.18 -5804.9,12939.99 -12939.89,12939.99 -2327.04,0 -4609.18,-625.05 -6599.85,-1807.5l1153.64 -1942c1641.74,975.09 3525.02,1490.6 5446.21,1490.6 5889.5,0 10680.99,-4791.49 10680.99,-10681.09 0,-2236.31 -683.52,-4377.37 -1976.53,-6191.54l1839.58 -1311.1c1567.31,2199.22 2395.85,4793.57 2395.85,7502.64z"/>
   <path class="fil0" d="M5597.42 22685.31l1867.54 -1094.81c-207.06,-356.82 -394.73,-728.23 -558.7,-1105.38l-1989.23 853.87c199.44,459.88 428.14,912.31 680.39,1346.32zm1996.22 -1061.12l-2029.83 1189.95 -23.8 -40.66c-271.63,-463.16 -516.63,-947.88 -728.12,-1440.6l-18.54 -43.2 2162.24 -928.14 18.54 43.22c172.89,402.84 373.28,799.36 595.68,1178.77l23.83 40.66z"/>
   <path class="fil2" d="M4711.04 20964.43l2100.96 -829.59c-161.79,-409.98 -299.4,-834.38 -408.77,-1261.31l-2188.2 560.49c132.71,518.04 299.59,1032.99 496.01,1530.41z"/>
   <path class="fil2" d="M3856.56 15119.22l2250.98 188.79c37.01,-440.67 101.84,-882.47 192.66,-1312.97l-2210.14 -466.66c-110.21,521.91 -188.7,1057.16 -233.5,1590.84z"/>
   <path class="fil2" d="M3840.85 17102.23l2253.7 -152.85c-29.83,-439.26 -32.66,-889.64 -8.57,-1329.27l-2255.48 -123.66c-29.19,531.3 -25.72,1075.03 10.35,1605.78z"/>
   <path class="fil0" d="M4162.18 19009.97l2111.87 -475.33c-88.39,-401.24 -154.26,-812.24 -195.96,-1222.9l-2154.69 209.33c50.53,499.96 130.73,1000.39 238.78,1488.9zm2224.35 -404.17l-2295.61 516.62 -10.35 -45.83c-117.45,-522.07 -203.49,-1058.2 -255.44,-1593.27l-4.53 -46.77 2341.93 -227.58 4.61 46.77c42.53,438.14 112.83,876.92 209.04,1304.14l10.35 45.92z"/>
   <path class="fil2" d="M6564.3 12990.7c-72.27,228.7 -137.59,462.79 -194.15,695.92l-2195.27 -532.34c68.59,-282.92 147.94,-567.08 235.66,-844.64l2153.76 681.06z"/>
   <path class="fil0" d="M22748.08 4744.95l-1048.41 2000.91c-1536.22,-804.94 -3201.31,-1213.03 -4948.95,-1213.03 -2030.26,0 -4004.91,571.51 -5710.47,1652.95 -1661.52,1053.4 -2999.81,2540.4 -3870.05,4300.28l-2024.81 -1001.37c1053.77,-2131.05 2673.96,-3931.6 4685.3,-5206.73 2067.93,-1311.1 4460.84,-2004.03 6920.03,-2004.03 2086.66,0 4160.51,508.62 5997.36,1471.02z"/>
   <path class="fil3" d="M17217.03 31624.98c-155.12,4.5 -311.99,6.85 -466.26,6.85 -2667.21,0 -5295.79,-691.97 -7601.57,-2001.09 -2235.82,-1269.4 -4136.31,-3094.79 -5496.15,-5278.85l399.45 -248.76c2751.79,4419.62 7498.77,7058.1 12698.27,7058.1 149.65,0 301.83,-2.24 452.33,-6.67l13.93 470.42z"/>
  </g>
 </g>
</svg>
